<?xml version="1.0" encoding="UTF-8"?>
<svg width="80px" height="80px" viewBox="0 0 80 80" version="1.1" xmlns="http://www.w3.org/2000/svg" xmlns:xlink="http://www.w3.org/1999/xlink">
    <title>页签logo</title>
    <defs>
        <linearGradient x1="100%" y1="75.7463249%" x2="0%" y2="24.2536751%" id="linearGradient-1">
            <stop stop-color="#82B6FF" offset="0%"></stop>
            <stop stop-color="#82B6FF" offset="100%"></stop>
        </linearGradient>
        <path d="M32.3181932,1.4398976 L17.0763186,23.0327256 C16.9170728,23.2583257 16.6050936,23.3121164 16.3794936,23.1528706 C16.3328884,23.1199731 16.2922566,23.0793426 16.2593577,23.0327385 L1.01645429,1.43989241 C0.857201382,1.21429737 0.910982312,0.902316466 1.13657736,0.743063562 C1.27825198,0.643052078 1.46163195,0.623593521 1.62113998,0.691646337 L16.6677917,7.1111793 L31.7134885,0.691668599 C31.9674781,0.583299457 32.2612279,0.7013482 32.3695971,0.955337846 C32.4376527,1.1148428 32.4181992,1.29822125 32.3181932,1.4398976 Z" id="path-2"></path>
        <linearGradient x1="100%" y1="84.7227768%" x2="0%" y2="15.2772232%" id="linearGradient-4">
            <stop stop-color="#82B6FF" offset="0%"></stop>
            <stop stop-color="#82B6FF" offset="100%"></stop>
        </linearGradient>
        <linearGradient x1="25.0869031%" y1="58.7791566%" x2="74.9130969%" y2="100%" id="linearGradient-5">
            <stop stop-color="#5591F2" offset="0%"></stop>
            <stop stop-color="#D4E9FF" offset="100%"></stop>
        </linearGradient>
        <linearGradient x1="0%" y1="100%" x2="0%" y2="0%" id="linearGradient-6">
            <stop stop-color="#5591F2" offset="0%"></stop>
            <stop stop-color="#82B6FF" offset="100%"></stop>
        </linearGradient>
        <linearGradient x1="50%" y1="84.7227768%" x2="0%" y2="50%" id="linearGradient-7">
            <stop stop-color="#ABD1FF" offset="0%"></stop>
            <stop stop-color="#5591F2" offset="100%"></stop>
        </linearGradient>
        <linearGradient x1="50%" y1="50%" x2="104.808689%" y2="50.8229117%" id="linearGradient-8">
            <stop stop-color="#2B6DE5" offset="0%"></stop>
            <stop stop-color="#1B4FBF" offset="100%"></stop>
        </linearGradient>
        <linearGradient x1="0%" y1="100%" x2="0%" y2="57.4516748%" id="linearGradient-9">
            <stop stop-color="#FFFFFF" stop-opacity="0.35" offset="0%"></stop>
            <stop stop-color="#FFFFFF" stop-opacity="0" offset="100%"></stop>
        </linearGradient>
        <linearGradient x1="0%" y1="100%" x2="0%" y2="0%" id="linearGradient-10">
            <stop stop-color="#5591F2" offset="0%"></stop>
            <stop stop-color="#D4E9FF" offset="100%"></stop>
        </linearGradient>
        <path d="M37.667388,0.812476441 L25.7161258,15.7516736 C25.6112065,15.8828237 25.4749445,15.9854355 25.3199135,16.0500404 L0.69233502,26.312896 C0.437439381,26.4191167 0.144696796,26.2985918 0.0384761555,26.0436961 C-0.0317765163,25.8751121 -0.0045214911,25.681636 0.109569915,25.5390207 L12.0628845,10.5972581 C12.1678163,10.4660923 12.304098,10.363472 12.4591514,10.2988686 L37.0846502,0.0385896767 C37.3395522,-0.0676158807 37.6322876,0.0529263413 37.7384932,0.307828265 C37.8087318,0.476406628 37.7814728,0.669869322 37.667388,0.812476441 Z" id="path-11"></path>
        <linearGradient x1="100%" y1="25.6708674%" x2="50%" y2="50%" id="linearGradient-13">
            <stop stop-color="#FFFFFF" stop-opacity="0.25" offset="0%"></stop>
            <stop stop-color="#FFFFFF" stop-opacity="0" offset="100%"></stop>
        </linearGradient>
        <path d="M37.667388,0.812476441 L25.7161258,15.7516736 C25.6112065,15.8828237 25.4749445,15.9854355 25.3199135,16.0500404 L0.69233502,26.312896 C0.437439381,26.4191167 0.144696796,26.2985918 0.0384761555,26.0436961 C-0.0317765163,25.8751121 -0.0045214911,25.681636 0.109569915,25.5390207 L12.0628845,10.5972581 C12.1678163,10.4660923 12.304098,10.363472 12.4591514,10.2988686 L37.0846502,0.0385896767 C37.3395522,-0.0676158807 37.6322876,0.0529263413 37.7384932,0.307828265 C37.8087318,0.476406628 37.7814728,0.669869322 37.667388,0.812476441 Z" id="path-14"></path>
        <linearGradient x1="0%" y1="74.1130395%" x2="50%" y2="50%" id="linearGradient-16">
            <stop stop-color="#5591F2" offset="0%"></stop>
            <stop stop-color="#2B6DE5" offset="100%"></stop>
        </linearGradient>
        <linearGradient x1="0%" y1="100%" x2="0%" y2="50%" id="linearGradient-17">
            <stop stop-color="#FFFFFF" stop-opacity="0.6" offset="0%"></stop>
            <stop stop-color="#FFFFFF" stop-opacity="0" offset="100%"></stop>
        </linearGradient>
        <path d="M38.7779564,1.52499723 L26.8266941,16.4641944 C26.7217748,16.5953445 26.5855129,16.6979563 26.4304818,16.7625611 L1.80290338,27.0254168 C1.54800774,27.1316375 1.25526516,27.0111126 1.14904452,26.7562169 C1.07879185,26.5876329 1.10604687,26.3941568 1.22013828,26.2515414 L13.1734529,11.3097789 C13.2783846,11.1786131 13.4146664,11.0759928 13.5697198,11.0113894 L38.1952186,0.751110462 C38.4501205,0.644904905 38.742856,0.765447127 38.8490615,1.02034905 C38.9193002,1.18892741 38.8920412,1.38239011 38.7779564,1.52499723 Z" id="path-18"></path>
        <path d="M38.7779564,1.52499723 L26.8266941,16.4641944 C26.7217748,16.5953445 26.5855129,16.6979563 26.4304818,16.7625611 L1.80290338,27.0254168 C1.54800774,27.1316375 1.25526516,27.0111126 1.14904452,26.7562169 C1.07879185,26.5876329 1.10604687,26.3941568 1.22013828,26.2515414 L13.1734529,11.3097789 C13.2783846,11.1786131 13.4146664,11.0759928 13.5697198,11.0113894 L38.1952186,0.751110462 C38.4501205,0.644904905 38.742856,0.765447127 38.8490615,1.02034905 C38.9193002,1.18892741 38.8920412,1.38239011 38.7779564,1.52499723 Z" id="path-20"></path>
        <linearGradient x1="50%" y1="50%" x2="100%" y2="25.8869605%" id="linearGradient-22">
            <stop stop-color="#5591F2" offset="0%"></stop>
            <stop stop-color="#2B6DE5" offset="100%"></stop>
        </linearGradient>
        <linearGradient x1="0%" y1="100%" x2="0%" y2="57.4516748%" id="linearGradient-23">
            <stop stop-color="#FFFFFF" stop-opacity="0.35" offset="0%"></stop>
            <stop stop-color="#FFFFFF" stop-opacity="0" offset="100%"></stop>
        </linearGradient>
    </defs>
    <g id="设计稿" stroke="none" stroke-width="1" fill="none" fill-rule="evenodd">
        <g id="编组-66">
            <rect id="切图区域" opacity="0.250164" x="0" y="0" width="80" height="80"></rect>
            <g id="编组-6" transform="translate(0.001000, 15.001000)">
                <g id="编组-11" transform="translate(23.331208, 26.387821)">
                    <mask id="mask-3" fill="white">
                        <use xlink:href="#path-2"></use>
                    </mask>
                    <use id="蒙版" fill="url(#linearGradient-1)" xlink:href="#path-2"></use>
                    <polygon id="路径-7" fill="url(#linearGradient-4)" mask="url(#mask-3)" points="0.00111111574 0 16.6678472 13.8890577 16.6678472 0"></polygon>
                    <polygon id="路径-6" fill="url(#linearGradient-5)" mask="url(#mask-3)" transform="translate(8.333368, 11.805699) scale(-1, 1) translate(-8.333368, -11.805699) " points="4.54747351e-13 13.8890577 4.54747351e-13 23.6113981 16.6667361 9.09494702e-13"></polygon>
                    <polygon id="路径-8" fill="url(#linearGradient-6)" mask="url(#mask-3)" points="16.6678472 13.8890577 33.3345833 0 16.6678472 0"></polygon>
                    <polygon id="路径-6" fill="url(#linearGradient-7)" mask="url(#mask-3)" points="16.6678472 13.8890577 16.6678472 0 33.3345833 0"></polygon>
                    <polygon id="路径-6" fill="url(#linearGradient-8)" mask="url(#mask-3)" points="16.6678472 13.8890577 16.6678472 23.6113981 33.3345833 0"></polygon>
                    <polygon id="路径-6" fill="url(#linearGradient-9)" mask="url(#mask-3)" points="16.6678472 13.8890577 16.6678472 23.6113981 33.3345833 -4.156675e-13"></polygon>
                </g>
                <g id="编组-8" transform="translate(41.109624, 0.712521)">
                    <mask id="mask-12" fill="white">
                        <use xlink:href="#path-11"></use>
                    </mask>
                    <use id="蒙版" fill="url(#linearGradient-10)" xlink:href="#path-11"></use>
                    <mask id="mask-15" fill="white">
                        <use xlink:href="#path-14"></use>
                    </mask>
                    <use id="蒙版" fill="url(#linearGradient-13)" xlink:href="#path-14"></use>
                    <polygon id="路径-3" fill="url(#linearGradient-16)" mask="url(#mask-15)" points="-1.11056836 27.0642057 38.8895983 -0.713909691 38.8895983 27.0642057"></polygon>
                    <polygon id="路径-3" fill="url(#linearGradient-17)" mask="url(#mask-15)" points="-1.11056836 27.0642057 38.8895983 -0.713909691 38.8895983 27.0642057"></polygon>
                </g>
                <g id="编组-10" transform="translate(19.998972, 13.888363) scale(-1, 1) translate(-19.998972, -13.888363) ">
                    <mask id="mask-19" fill="white">
                        <use xlink:href="#path-18"></use>
                    </mask>
                    <use id="蒙版" fill="url(#linearGradient-10)" xlink:href="#path-18"></use>
                    <mask id="mask-21" fill="white">
                        <use xlink:href="#path-20"></use>
                    </mask>
                    <use id="蒙版" fill="url(#linearGradient-13)" xlink:href="#path-20"></use>
                    <polygon id="路径-5" fill="url(#linearGradient-22)" mask="url(#mask-21)" points="39.9990556 -0.00138890577 -0.00111111574 27.7767265 39.9990556 26.3878207"></polygon>
                    <polygon id="路径-5" fill="url(#linearGradient-23)" mask="url(#mask-21)" points="39.9990556 -0.00138890577 -0.00111111574 27.7767265 39.9990556 26.3878207"></polygon>
                    <polygon id="路径-5" mask="url(#mask-21)" points="39.9990556 -0.00138890577 -0.00111111574 27.7767265 -0.00105555787 -0.000999999997"></polygon>
                </g>
            </g>
        </g>
    </g>
</svg>